<svg xmlns="http://www.w3.org/2000/svg" width="80" height="60"><path d="M0 0 C26.4 0 52.8 0 80 0 C80 19.8 80 39.6 80 60 C53.6 60 27.2 60 0 60 C0 40.2 0 20.4 0 0 Z " fill="#FDFEFE" transform="translate(0,0)"></path><path d="M0 0 C5.77633112 2.71245967 10.22024967 6.91521511 13.6796875 12.27734375 C15.66737695 18.84231804 15.50921815 25.23258674 12.7421875 31.52734375 C9.62684449 37.17946607 4.84135784 40.95759226 -1.328125 42.9140625 C-7.90329162 44.11306347 -13.40897765 43.57404973 -19.3203125 40.27734375 C-24.5870454 35.60910323 -28.67794428 30.80096839 -29.69140625 23.6640625 C-29.8595773 16.82840403 -28.86361282 12.46806437 -24.3203125 7.27734375 C-17.27182199 0.21312 -10.07794237 -3.13875309 0 0 Z " fill="#46A8A4" transform="translate(47.3203125,8.72265625)"></path><path d="M0 0 C8.58 0 17.16 0 26 0 C26 3.63 26 7.26 26 11 C23.69 11.66 21.38 12.32 19 13 C18.67 12.67 18.34 12.34 18 12 C16.15108054 11.76636119 14.29511969 11.58696365 12.4375 11.4375 C11.42558594 11.35371094 10.41367187 11.26992188 9.37109375 11.18359375 C8.58863281 11.12300781 7.80617188 11.06242187 7 11 C7 11.66 7 12.32 7 13 C4.69 12.34 2.38 11.68 0 11 C0 7.37 0 3.74 0 0 Z " fill="#D7ECEB" transform="translate(27,17)"></path><path d="M0 0 C7.59 0 15.18 0 23 0 C23 2.64 23 5.28 23 8 C19.30458414 8.95024979 16.69541586 8.95024979 13 8 C15.63904371 6.58622659 18.07120629 5.62759865 21 5 C21 4.34 21 3.68 21 3 C19.68 3 18.36 3 17 3 C16.34 3.66 15.68 4.32 15 5 C14.67 4.34 14.34 3.68 14 3 C12.68 3 11.36 3 10 3 C10 4.65 10 6.3 10 8 C6.33694766 8.74926071 3.57644848 9.2380014 0 8 C0 5.36 0 2.72 0 0 Z " fill="#72BCB9" transform="translate(28,18)"></path><path d="M0 0 C1.65 0.33 3.3 0.66 5 1 C6.19287411 4.87684087 7 7.91621923 7 12 C3.7 12 0.4 12 -3 12 C-2.25749403 7.91621717 -1.17076699 3.98060777 0 0 Z " fill="#BFE0DF" transform="translate(31,31)"></path><path d="M0 0 C1.65 0.33 3.3 0.66 5 1 C5.33 4.63 5.66 8.26 6 12 C3.03 12 0.06 12 -3 12 C-2.88601335 10.37419034 -2.75844341 8.74932843 -2.625 7.125 C-2.55539063 6.22007813 -2.48578125 5.31515625 -2.4140625 4.3828125 C-2 2 -2 2 0 0 Z " fill="#AAD7D5" transform="translate(45,31)"></path><path d="M0 0 C0.9075 0.165 1.815 0.33 2.75 0.5 C5.91372977 0.98672766 7.94173339 0.80954116 11 0 C11 1.32 11 2.64 11 4 C7.3791799 5.01382963 3.72188582 5.49897691 0 6 C-0.38218767 4.34385343 -0.71395102 2.67542976 -1 1 C-0.67 0.67 -0.34 0.34 0 0 Z " fill="#9ACFCD" transform="translate(38,20)"></path><path d="M0 0 C0.99 0.33 1.98 0.66 3 1 C2.67 2.32 2.34 3.64 2 5 C2.99 5 3.98 5 5 5 C5 3.35 5 1.7 5 0 C6.65 0 8.3 0 10 0 C9.67 2.31 9.34 4.62 9 7 C3.375 8.125 3.375 8.125 0 7 C0 4.69 0 2.38 0 0 Z " fill="#52ADAA" transform="translate(29,19)"></path><path d="M0 0 C0 1.32 0 2.64 0 4 C-3.3 4 -6.6 4 -10 4 C-9.67 2.68 -9.34 1.36 -9 0 C-5.93109813 -1.53445094 -3.29905734 -0.54984289 0 0 Z " fill="#8EC9C7" transform="translate(38,39)"></path><path d="M0 0 C1.47668858 0.0133035 2.95331108 0.03716415 4.4296875 0.0703125 C5.18378906 0.07933594 5.93789063 0.08835937 6.71484375 0.09765625 C8.57826004 0.1212438 10.44151343 0.15711531 12.3046875 0.1953125 C12.3046875 0.5253125 12.3046875 0.8553125 12.3046875 1.1953125 C11.59441406 1.24429687 10.88414063 1.29328125 10.15234375 1.34375 C8.77369141 1.45589844 8.77369141 1.45589844 7.3671875 1.5703125 C6.45066406 1.63992187 5.53414062 1.70953125 4.58984375 1.78125 C3.45869141 1.98621094 3.45869141 1.98621094 2.3046875 2.1953125 C1.9746875 2.8553125 1.6446875 3.5153125 1.3046875 4.1953125 C-1.0053125 3.5353125 -3.3153125 2.8753125 -5.6953125 2.1953125 C-3.6953125 0.1953125 -3.6953125 0.1953125 0 0 Z " fill="#D2E9E8" transform="translate(32.6953125,25.8046875)"></path><path d="M0 0 C0.99 0 1.98 0 3 0 C3 2.31 3 4.62 3 7 C-0.69541586 7.95024979 -3.30458414 7.95024979 -7 7 C-4.36095629 5.58622659 -1.92879371 4.62759865 1 4 C0.67 2.68 0.34 1.36 0 0 Z " fill="#56AFAC" transform="translate(48,19)"></path><path d="M0 0 C1.98 0.495 1.98 0.495 4 1 C3.67 2.32 3.34 3.64 3 5 C1.68 4.67 0.36 4.34 -1 4 C-0.67 2.68 -0.34 1.36 0 0 Z " fill="#BFE0DF" transform="translate(31,20)"></path><path d="M0 0 C2.475 0.495 2.475 0.495 5 1 C4.34 2.32 3.68 3.64 3 5 C2.01 4.67 1.02 4.34 0 4 C0 2.68 0 1.36 0 0 Z " fill="#C0E1DF" transform="translate(45,20)"></path></svg>