<svg xmlns="http://www.w3.org/2000/svg" width="80" height="60"><path d="M0 0 C26.4 0 52.8 0 80 0 C80 19.8 80 39.6 80 60 C53.6 60 27.2 60 0 60 C0 40.2 0 20.4 0 0 Z " fill="#FDFEFE" transform="translate(0,0)"></path><path d="M0 0 C5.77633112 2.71245967 10.22024967 6.91521511 13.6796875 12.27734375 C15.66737695 18.84231804 15.50921815 25.23258674 12.7421875 31.52734375 C9.62684449 37.17946607 4.84135784 40.95759226 -1.328125 42.9140625 C-7.90329162 44.11306347 -13.40897765 43.57404973 -19.3203125 40.27734375 C-24.5870454 35.60910323 -28.67794428 30.80096839 -29.69140625 23.6640625 C-29.8595773 16.82840403 -28.86361282 12.46806437 -24.3203125 7.27734375 C-17.27182199 0.21312 -10.07794237 -3.13875309 0 0 Z " fill="#48A8A4" transform="translate(47.3203125,8.72265625)"></path><path d="M0 0 C1.21464795 0.65509103 2.42529246 1.31793277 3.625 2 C3.73353983 4.22808159 3.81083307 6.45769932 3.875 8.6875 C3.92140625 9.92886719 3.9678125 11.17023437 4.015625 12.44921875 C3.56138891 16.57822483 2.52252344 18.09715023 -0.375 21 C-3.98086399 23.20358355 -7.26959392 23.37482608 -11.4375 22.6328125 C-14.05692192 21.7772755 -15.89896635 20.51820265 -17.54296875 18.296875 C-19.49174402 12.91715736 -18.69792454 6.64041533 -18.375 1 C-11.53607409 -1.82990037 -6.93468824 -3.41867964 0 0 Z " fill="#4BAAA6" transform="translate(47.375,19)"></path><path d="M0 0 C1.21464795 0.65509103 2.42529246 1.31793277 3.625 2 C3.73353983 4.22808159 3.81083307 6.45769932 3.875 8.6875 C3.92140625 9.92886719 3.9678125 11.17023437 4.015625 12.44921875 C3.56138891 16.57822483 2.52252344 18.09715023 -0.375 21 C-3.98086399 23.20358355 -7.26959392 23.37482608 -11.4375 22.6328125 C-14.05692192 21.7772755 -15.89896635 20.51820265 -17.54296875 18.296875 C-19.49174402 12.91715736 -18.69792454 6.64041533 -18.375 1 C-11.53607409 -1.82990037 -6.93468824 -3.41867964 0 0 Z M-16.375 3 C-16.95537855 10.82534697 -16.95537855 10.82534697 -14.8125 18.1875 C-11.52781278 20.62995973 -9.46550761 21.07052599 -5.375 21 C-1.11701624 18.77020332 -1.11701624 18.77020332 1.625 15 C1.69565617 12.95944995 1.70921976 10.91665743 1.6875 8.875 C1.67847656 7.77929688 1.66945313 6.68359375 1.66015625 5.5546875 C1.64855469 4.71164063 1.63695313 3.86859375 1.625 3 C-4.91877577 0.44633141 -9.92968556 0.22355686 -16.375 3 Z " fill="#DDEFEE" transform="translate(47.375,19)"></path><path d="M0 0 C5.875 0.875 5.875 0.875 7 2 C7.17926852 4.24526468 7.26811465 6.49802739 7.3125 8.75 C7.34988281 9.98234375 7.38726562 11.2146875 7.42578125 12.484375 C6.93039407 16.57472786 5.88239139 18.12287806 3 21 C0.29408003 22.48825598 -1.11373323 23.18945558 -4.15625 22.5390625 C-4.7646875 22.36117187 -5.373125 22.18328125 -6 22 C-5.36191406 21.66226563 -4.72382812 21.32453125 -4.06640625 20.9765625 C-3.24011719 20.53054687 -2.41382813 20.08453125 -1.5625 19.625 C-0.73878906 19.18414062 0.08492187 18.74328125 0.93359375 18.2890625 C3.13466578 17.16581441 3.13466578 17.16581441 4 15 C4.22858114 12.9625237 4.41024278 10.91959697 4.5625 8.875 C4.64628906 7.77929688 4.73007812 6.68359375 4.81640625 5.5546875 C4.87699219 4.71164063 4.93757813 3.86859375 5 3 C4.360625 2.87625 3.72125 2.7525 3.0625 2.625 C2.0415625 2.315625 2.0415625 2.315625 1 2 C0.67 1.34 0.34 0.68 0 0 Z " fill="#E2F1F0" transform="translate(44,19)"></path><path d="M0 0 C0.66 0 1.32 0 2 0 C1.34 1.65 0.68 3.3 0 5 C-0.66 5 -1.32 5 -2 5 C-2.33 5.99 -2.66 6.98 -3 8 C-3.99 8 -4.98 8 -6 8 C-6.66 6.35 -7.32 4.7 -8 3 C-7.13375 3.37125 -7.13375 3.37125 -6.25 3.75 C-5.5075 3.8325 -4.765 3.915 -4 4 C-1.85410577 2.10413616 -1.85410577 2.10413616 0 0 Z " fill="#E2F1F0" transform="translate(43,26)"></path><path d="M0 0 C0.66 1.32 1.32 2.64 2 4 C0.22950311 4.05410687 -1.54146849 4.09284119 -3.3125 4.125 C-4.79169922 4.15980469 -4.79169922 4.15980469 -6.30078125 4.1953125 C-9 4 -9 4 -12 2 C-7.82262526 0.40861915 -4.46839215 -0.21278058 0 0 Z " fill="#C6E4E3" transform="translate(43,17)"></path></svg>