<svg xmlns="http://www.w3.org/2000/svg" width="80" height="60"><path d="M0 0 C26.4 0 52.8 0 80 0 C80 19.8 80 39.6 80 60 C53.6 60 27.2 60 0 60 C0 40.2 0 20.4 0 0 Z " fill="#FDFEFE" transform="translate(0,0)"></path><path d="M0 0 C5.77633112 2.71245967 10.22024967 6.91521511 13.6796875 12.27734375 C15.66737695 18.84231804 15.50921815 25.23258674 12.7421875 31.52734375 C9.62684449 37.17946607 4.84135784 40.95759226 -1.328125 42.9140625 C-7.90329162 44.11306347 -13.40897765 43.57404973 -19.3203125 40.27734375 C-24.5870454 35.60910323 -28.67794428 30.80096839 -29.69140625 23.6640625 C-29.8595773 16.82840403 -28.86361282 12.46806437 -24.3203125 7.27734375 C-17.27182199 0.21312 -10.07794237 -3.13875309 0 0 Z " fill="#46A7A3" transform="translate(47.3203125,8.72265625)"></path><path d="M0 0 C1.4540625 0.0309375 1.4540625 0.0309375 2.9375 0.0625 C2.9375 0.7225 2.9375 1.3825 2.9375 2.0625 C4.5875 2.0625 6.2375 2.0625 7.9375 2.0625 C8.2675 2.7225 8.5975 3.3825 8.9375 4.0625 C8.6075 4.7225 8.2775 5.3825 7.9375 6.0625 C8.9275 5.7325 9.9175 5.4025 10.9375 5.0625 C11.5975 5.3925 12.2575 5.7225 12.9375 6.0625 C12.9375 10.6825 12.9375 15.3025 12.9375 20.0625 C9.37907686 20.77418463 6.71028368 21.19932142 3.1875 21.1875 C2.40890625 21.19007812 1.6303125 21.19265625 0.828125 21.1953125 C-1.0625 21.0625 -1.0625 21.0625 -2.0625 20.0625 C-2.38776705 16.70140715 -2.5760946 13.3391601 -2.78125 9.96875 C-2.7410989 7.17199868 -2.7410989 7.17199868 -4.0625 6.0625 C-4.1875 3.5625 -4.1875 3.5625 -4.0625 1.0625 C-3.0625 0.0625 -3.0625 0.0625 0 0 Z " fill="#67B7B4" transform="translate(36.0625,17.9375)"></path><path d="M0 0 C1.4540625 0.0309375 1.4540625 0.0309375 2.9375 0.0625 C2.9375 0.7225 2.9375 1.3825 2.9375 2.0625 C4.5875 2.0625 6.2375 2.0625 7.9375 2.0625 C8.2675 2.7225 8.5975 3.3825 8.9375 4.0625 C8.6075 4.7225 8.2775 5.3825 7.9375 6.0625 C8.9275 5.7325 9.9175 5.4025 10.9375 5.0625 C11.5975 5.3925 12.2575 5.7225 12.9375 6.0625 C12.9375 10.6825 12.9375 15.3025 12.9375 20.0625 C9.37907686 20.77418463 6.71028368 21.19932142 3.1875 21.1875 C2.40890625 21.19007812 1.6303125 21.19265625 0.828125 21.1953125 C-1.0625 21.0625 -1.0625 21.0625 -2.0625 20.0625 C-2.38776705 16.70140715 -2.5760946 13.3391601 -2.78125 9.96875 C-2.7410989 7.17199868 -2.7410989 7.17199868 -4.0625 6.0625 C-4.1875 3.5625 -4.1875 3.5625 -4.0625 1.0625 C-3.0625 0.0625 -3.0625 0.0625 0 0 Z M3.9375 3.0625 C3.669375 3.701875 3.40125 4.34125 3.125 5 C1.9375 7.0625 1.9375 7.0625 -1.0625 8.0625 C-1.0625 11.6925 -1.0625 15.3225 -1.0625 19.0625 C2.8975 19.0625 6.8575 19.0625 10.9375 19.0625 C10.9375 15.1025 10.9375 11.1425 10.9375 7.0625 C9.6175 7.0625 8.2975 7.0625 6.9375 7.0625 C6.9375 5.7425 6.9375 4.4225 6.9375 3.0625 C5.9475 3.0625 4.9575 3.0625 3.9375 3.0625 Z " fill="#D7ECEB" transform="translate(36.0625,17.9375)"></path><path d="M0 0 C2.97 0.495 2.97 0.495 6 1 C6 4.96 6 8.92 6 13 C4.35 12.67 2.7 12.34 1 12 C1.99 11.67 2.98 11.34 4 11 C4 9.35 4 7.7 4 6 C1.36 6 -1.28 6 -4 6 C-4 5.67 -4 5.34 -4 5 C-1.36 5 1.28 5 4 5 C4 4.34 4 3.68 4 3 C2.02 3 0.04 3 -2 3 C-1.34 2.01 -0.68 1.02 0 0 Z " fill="#4EABA7" transform="translate(41,24)"></path><path d="M0 0 C2.64 0 5.28 0 8 0 C8 1.32 8 2.64 8 4 C5.36 4 2.72 4 0 4 C0 2.68 0 1.36 0 0 Z " fill="#A2D3D1" transform="translate(37,30)"></path><path d="M0 0 C0.33 0 0.66 0 1 0 C1 4.62 1 9.24 1 14 C0.01 14.33 -0.98 14.66 -2 15 C-2.66 14.34 -3.32 13.68 -4 13 C-3.01 13 -2.02 13 -1 13 C-1.01160156 12.14535156 -1.02320313 11.29070313 -1.03515625 10.41015625 C-1.04869141 8.75306641 -1.04869141 8.75306641 -1.0625 7.0625 C-1.07410156 5.96035156 -1.08570313 4.85820312 -1.09765625 3.72265625 C-1 1 -1 1 0 0 Z " fill="#B0D9D8" transform="translate(48,24)"></path></svg>