<svg xmlns="http://www.w3.org/2000/svg" width="80" height="60"><path d="M0 0 C26.4 0 52.8 0 80 0 C80 19.8 80 39.6 80 60 C53.6 60 27.2 60 0 60 C0 40.2 0 20.4 0 0 Z " fill="#FEFEFE" transform="translate(0,0)"></path><path d="M0 0 C5.11280275 1.84060899 8.10397971 4.40043837 11 9 C11.96578802 13.61058804 11.48450969 17.6648815 9.375 21.875 C6.29045447 25.93361254 3.88290772 27.48444351 -1.140625 28.3828125 C-5.64857397 28.73547517 -8.38632519 28.18303297 -11.9375 25.3125 C-15.6543776 21.63003793 -16.80687319 18.77032912 -17.375 13.5625 C-16.78688714 7.97542783 -14.40354499 5.18521577 -10.1875 1.625 C-6.37985365 -0.31615304 -4.22575274 -0.52821909 0 0 Z " fill="#4FABA8" transform="translate(43,16)"></path><path d="M0 0 C4.35694046 0.4841045 8.97624353 1.67768605 12.66796875 4.08984375 C14.74552591 7.06909728 14.31455202 10.19845602 14.1875 13.6875 C14.16719727 14.7403418 14.16719727 14.7403418 14.14648438 15.81445312 C14.11120182 17.54329829 14.05739583 19.27174765 14 21 C12.60554251 21.19747219 11.20931848 21.38248587 9.8125 21.5625 C9.03519531 21.66691406 8.25789063 21.77132812 7.45703125 21.87890625 C4.80087506 22.00981379 2.57758371 21.6180707 0 21 C-0.06058594 20.04738281 -0.12117188 19.09476563 -0.18359375 18.11328125 C-0.26738281 16.85902344 -0.35117187 15.60476562 -0.4375 14.3125 C-0.51871094 13.07113281 -0.59992187 11.82976563 -0.68359375 10.55078125 C-0.90813656 7.09588267 -0.90813656 7.09588267 -1.66015625 4.16796875 C-1.82837891 3.09482422 -1.82837891 3.09482422 -2 2 C-1.34 1.34 -0.68 0.68 0 0 Z " fill="#6CB9B6" transform="translate(34,19)"></path><path d="M0 0 C4.35694046 0.4841045 8.97624353 1.67768605 12.66796875 4.08984375 C14.74552591 7.06909728 14.31455202 10.19845602 14.1875 13.6875 C14.16719727 14.7403418 14.16719727 14.7403418 14.14648438 15.81445312 C14.11120182 17.54329829 14.05739583 19.27174765 14 21 C12.60554251 21.19747219 11.20931848 21.38248587 9.8125 21.5625 C9.03519531 21.66691406 8.25789063 21.77132812 7.45703125 21.87890625 C4.80087506 22.00981379 2.57758371 21.6180707 0 21 C-0.06058594 20.04738281 -0.12117188 19.09476563 -0.18359375 18.11328125 C-0.26738281 16.85902344 -0.35117187 15.60476562 -0.4375 14.3125 C-0.51871094 13.07113281 -0.59992187 11.82976563 -0.68359375 10.55078125 C-0.90813656 7.09588267 -0.90813656 7.09588267 -1.66015625 4.16796875 C-1.82837891 3.09482422 -1.82837891 3.09482422 -2 2 C-1.34 1.34 -0.68 0.68 0 0 Z M6 3 C5.731875 3.639375 5.46375 4.27875 5.1875 4.9375 C4 7 4 7 1 8 C1 11.96 1 15.92 1 20 C4.96 20 8.92 20 13 20 C13.02693575 17.87506859 13.04636628 15.75004088 13.0625 13.625 C13.07410156 12.44164062 13.08570313 11.25828125 13.09765625 10.0390625 C13.21466593 7.08078479 13.21466593 7.08078479 12 5 C11.34 5 10.68 5 10 5 C9.67 4.34 9.34 3.68 9 3 C8.01 3 7.02 3 6 3 Z " fill="#D4EAE9" transform="translate(34,19)"></path><path d="M0 0 C0.33 0 0.66 0 1 0 C1.33 4.95 1.66 9.9 2 15 C-4.8019802 18.4009901 -4.8019802 18.4009901 -8.75 18.3125 C-9.50796875 18.30863281 -10.2659375 18.30476563 -11.046875 18.30078125 C-13 18 -13 18 -15 16 C-14.34 16 -13.68 16 -13 16 C-13 15.34 -13 14.68 -13 14 C-8.71 14 -4.42 14 0 14 C0 9.38 0 4.76 0 0 Z " fill="#60B3B0" transform="translate(48,26)"></path><path d="M0 0 C0.99 0 1.98 0 3 0 C3.33 0.66 3.66 1.32 4 2 C4.66 2 5.32 2 6 2 C6.33 2.99 6.66 3.98 7 5 C5.35 5 3.7 5 2 5 C2.99 5.33 3.98 5.66 5 6 C5 6.66 5 7.32 5 8 C2.36 8 -0.28 8 -3 8 C-3.33 10.97 -3.66 13.94 -4 17 C-4.33 17 -4.66 17 -5 17 C-5 13.04 -5 9.08 -5 5 C-3.68 4.34 -2.36 3.68 -1 3 C-0.67 2.01 -0.34 1.02 0 0 Z " fill="#7FC2BF" transform="translate(40,22)"></path><path d="M0 0 C0.33 1.32 0.66 2.64 1 4 C-5.0546875 4.1953125 -5.0546875 4.1953125 -7 4 C-7.66 3.34 -8.32 2.68 -9 2 C-6.03 1.34 -3.06 0.68 0 0 Z " fill="#53ADAA" transform="translate(46,35)"></path></svg>